<svg width="21" height="22" viewBox="0 0 21 22" fill="none" xmlns="http://www.w3.org/2000/svg">
<path d="M9.17103 21.037C10.2497 21.037 11.3178 20.8245 12.3144 20.4118C13.311 19.999 14.2165 19.3939 14.9792 18.6312C15.7419 17.8684 16.347 16.9629 16.7598 15.9664C17.1726 14.9698 17.385 13.9017 17.385 12.823C17.385 11.7443 17.1726 10.6762 16.7598 9.67965C16.347 8.68308 15.7419 7.77757 14.9792 7.01483C14.2165 6.25209 13.311 5.64705 12.3144 5.23426C11.3178 4.82147 10.2497 4.60901 9.17103 4.60901C6.99254 4.60901 4.90328 5.47441 3.36286 7.01483C1.82243 8.55526 0.957031 10.6445 0.957031 12.823C0.957031 15.0015 1.82243 17.0908 3.36286 18.6312C4.90328 20.1716 6.99254 21.037 9.17103 21.037Z" fill="#F24822"/>
<path d="M0.5 0.5V6.89H6.889" stroke="white" stroke-linecap="round" stroke-linejoin="round"/>
<path d="M0.5 6.89103C2.14767 4.6257 4.6222 3.1015 7.38661 2.64919C10.151 2.19688 12.9823 2.85295 15.266 4.47503C16.6171 5.44078 17.72 6.71319 18.4841 8.18781C19.2481 9.66243 19.6516 11.2972 19.6613 12.958C19.6711 14.6188 19.2869 16.2582 18.5402 17.7417C17.7935 19.2252 16.7057 20.5105 15.366 21.492" stroke="white" stroke-linecap="round" stroke-linejoin="round"/>
</svg>
