<svg width="18" height="18" viewBox="0 0 18 18" fill="none" xmlns="http://www.w3.org/2000/svg">
<path d="M14.7338 11.8634C14.7208 11.8476 14.7044 11.8348 14.6859 11.826C14.6674 11.8172 14.6471 11.8126 14.6266 11.8126C14.606 11.8126 14.5858 11.8172 14.5672 11.826C14.5487 11.8348 14.5323 11.8476 14.5193 11.8634C14.1502 12.2994 12.9373 13.5 12.9373 14.5937C12.9373 15.5429 13.6932 16.3125 14.6248 16.3125C15.5565 16.3125 16.3123 15.539 16.3123 14.5937C16.3123 13.5 15.1065 12.2994 14.7338 11.8634ZM13.6053 10.1215L5.47048 2.05169C5.3529 1.9337 5.21318 1.84008 5.05934 1.7762C4.9055 1.71233 4.74057 1.67944 4.57399 1.67944C4.40742 1.67944 4.24248 1.71233 4.08864 1.7762C3.9348 1.84008 3.79509 1.9337 3.67751 2.05169L3.49645 2.23275C3.37846 2.35033 3.28484 2.49004 3.22097 2.64388C3.15709 2.79772 3.1242 2.96266 3.1242 3.12923C3.1242 3.2958 3.15709 3.46074 3.22097 3.61458C3.28484 3.76842 3.37846 3.90813 3.49645 4.02571L5.35587 5.88513L7.35977 3.88122L1.98016 9.2531C1.8873 9.34545 1.81381 9.4554 1.76398 9.57652C1.71415 9.69764 1.68899 9.82748 1.68997 9.95844C1.69095 10.0894 1.71806 10.2188 1.7697 10.3392C1.82134 10.4596 1.89648 10.5684 1.99071 10.6593L6.60321 15.089C6.78739 15.2654 7.03272 15.3635 7.28771 15.3629C7.54269 15.3622 7.78751 15.2628 7.97079 15.0855C9.29969 13.7988 12.1298 11.0601 12.4251 10.7648C12.629 10.5609 13.0649 10.5152 13.4341 10.5152H13.4446C13.4903 10.5152 13.5349 10.5017 13.5728 10.4762C13.6107 10.4508 13.6401 10.4146 13.6574 10.3724C13.6746 10.3301 13.6789 10.2837 13.6696 10.239C13.6603 10.1943 13.6379 10.1534 13.6053 10.1215Z" stroke="#F24822" stroke-width="1.125" stroke-miterlimit="10"/>
</svg>
