<svg width="24" height="24" viewBox="0 0 24 24" fill="none" xmlns="http://www.w3.org/2000/svg">
<path d="M2.8 8.09995C2.8 8.33865 2.70518 8.56756 2.5364 8.73635C2.36761 8.90513 2.13869 8.99995 1.9 8.99995C1.66131 8.99995 1.43239 8.90513 1.2636 8.73635C1.09482 8.56756 1 8.33865 1 8.09995C1 7.86126 1.09482 7.63234 1.2636 7.46356C1.43239 7.29477 1.66131 7.19995 1.9 7.19995C2.13869 7.19995 2.36761 7.29477 2.5364 7.46356C2.70518 7.63234 2.8 7.86126 2.8 8.09995Z" fill="#3CDA8E"/>
<path d="M2.8 8.1C2.8 8.3387 2.70518 8.56761 2.5364 8.7364C2.36761 8.90518 2.13869 9 1.9 9C1.66131 9 1.43239 8.90518 1.2636 8.7364C1.09482 8.56761 1 8.3387 1 8.1C1 7.86131 1.09482 7.63239 1.2636 7.4636C1.43239 7.29482 1.66131 7.2 1.9 7.2C2.13869 7.2 2.36761 7.29482 2.5364 7.4636C2.70518 7.63239 2.8 7.86131 2.8 8.1ZM2.8 8.1V3.6C2.8 3.44087 2.86321 3.28826 2.97574 3.17574C3.08826 3.06321 3.24087 3 3.4 3H5" stroke="#3CDA8E" stroke-width="1.5" stroke-linecap="round"/>
<path d="M8 17C8.53043 17 9.03914 16.7893 9.41421 16.4142C9.78929 16.0391 10 15.5304 10 15C10 14.4696 9.78929 13.9609 9.41421 13.5858C9.03914 13.2107 8.53043 13 8 13C7.46957 13 6.96086 13.2107 6.58579 13.5858C6.21071 13.9609 6 14.4696 6 15C6 15.5304 6.21071 16.0391 6.58579 16.4142C6.96086 16.7893 7.46957 17 8 17Z" stroke="#3CDA8E" stroke-width="1.5" stroke-linecap="round" stroke-linejoin="round"/>
<path d="M2.0498 13C2.5508 18.053 6.8148 22 11.9998 22C17.5228 22 21.9998 17.523 21.9998 12C21.9998 6.477 17.5228 2 11.9998 2C10.6234 1.9991 9.26167 2.28235 7.9998 2.832" stroke="#3CDA8E" stroke-width="1.5" stroke-linecap="round" stroke-linejoin="round"/>
<path d="M15.5 9C15.6326 9 15.7598 8.94732 15.8536 8.85355C15.9473 8.75979 16 8.63261 16 8.5C16 8.36739 15.9473 8.24021 15.8536 8.14645C15.7598 8.05268 15.6326 8 15.5 8C15.3674 8 15.2402 8.05268 15.1464 8.14645C15.0527 8.24021 15 8.36739 15 8.5C15 8.63261 15.0527 8.75979 15.1464 8.85355C15.2402 8.94732 15.3674 9 15.5 9ZM8.5 9C8.63261 9 8.75979 8.94732 8.85355 8.85355C8.94732 8.75979 9 8.63261 9 8.5C9 8.36739 8.94732 8.24021 8.85355 8.14645C8.75979 8.05268 8.63261 8 8.5 8C8.36739 8 8.24021 8.05268 8.14645 8.14645C8.05268 8.24021 8 8.36739 8 8.5C8 8.63261 8.05268 8.75979 8.14645 8.85355C8.24021 8.94732 8.36739 9 8.5 9Z" fill="#3CDA8E" stroke="#3CDA8E" stroke-width="1.5" stroke-linecap="round" stroke-linejoin="round"/>
</svg>
