<svg width="32" height="32" viewBox="0 0 32 32" fill="none" xmlns="http://www.w3.org/2000/svg">
<path d="M7.12 2H24.903C25.506 2 26 2.51 26 3.14V8.93C26 9.33 25.792 9.71 25.456 9.91L21.65 12.21L20.04 13.086V13.63H12.04V13.08L10.44 12.21L6.555 9.91C6.38555 9.80869 6.24532 9.66511 6.14803 9.49332C6.05074 9.32153 5.99973 9.12742 6 8.93V3.14C6 2.51 6.505 2 7.12 2Z" fill="#0074BA"/>
<path d="M10.4399 12.21V2H13.0399L13.0499 13.63L10.4399 12.21ZM19.0399 13.63V2H21.6499V12.21L19.0399 13.63Z" fill="#D3D3D3"/>
<path d="M19.04 2H13.04V13.63H19.04V2Z" fill="#F8312F"/>
<path d="M16.04 30C21.585 30 26.08 25.393 26.08 19.71C26.08 14.027 21.585 9.42004 16.04 9.42004C10.495 9.42004 6 14.027 6 19.71C6 25.393 10.495 30 16.04 30Z" fill="#FFB02E"/>
<path d="M16.0498 28.76C13.6898 28.76 11.4698 27.82 9.80982 26.11C8.1393 24.3997 7.20893 22.1007 7.21982 19.71C7.21982 17.29 8.13982 15.02 9.80982 13.31C10.6201 12.4726 11.5905 11.8067 12.6634 11.352C13.7362 10.8972 14.8896 10.6628 16.0548 10.6628C17.2201 10.6628 18.3734 10.8972 19.4463 11.352C20.5191 11.8067 21.4895 12.4726 22.2998 13.31C25.7398 16.84 25.7398 22.58 22.2998 26.11C20.6198 27.82 18.3998 28.76 16.0498 28.76ZM16.0398 11.89C14.0898 11.89 12.1298 12.65 10.6498 14.18C9.20993 15.6595 8.40905 17.6455 8.41982 19.71C8.41982 21.8 9.20982 23.76 10.6498 25.24C11.348 25.9646 12.1852 26.5409 13.1114 26.9344C14.0375 27.3279 15.0336 27.5305 16.0398 27.53C18.0798 27.53 19.9898 26.72 21.4298 25.24C24.3998 22.19 24.3998 17.23 21.4298 14.18C20.7323 13.4544 19.8952 12.8775 18.9689 12.484C18.0426 12.0904 17.0463 11.8884 16.0398 11.89Z" fill="#FCD53F"/>
<path d="M16.6501 15.66L17.4801 17.38C17.5801 17.58 17.7701 17.73 17.9901 17.76L19.8401 18.04C20.3901 18.12 20.6201 18.82 20.2101 19.22L18.9301 20.5C18.7401 20.69 18.6801 20.97 18.7601 21.23L19.3501 22.94C19.5501 23.51 18.9901 24.05 18.4401 23.81L16.3001 22.85C16.2155 22.8107 16.1234 22.7903 16.0301 22.7903C15.9368 22.7903 15.8447 22.8107 15.7601 22.85L13.6201 23.81C13.0801 24.05 12.5101 23.51 12.7101 22.94L13.3001 21.23C13.3901 20.97 13.3201 20.69 13.1301 20.5L11.8501 19.22C11.4501 18.82 11.6701 18.12 12.2201 18.04L14.0701 17.76C14.2901 17.73 14.4801 17.59 14.5801 17.38L15.4101 15.66C15.6801 15.14 16.4001 15.14 16.6501 15.66Z" fill="#6D4534"/>
</svg>
