<svg width="24" height="24" viewBox="0 0 24 24" fill="none" xmlns="http://www.w3.org/2000/svg">
<g clip-path="url(#clip0_1690_1556)">
<path d="M12 23.999C18.6275 23.999 24 18.6265 24 11.999C24 5.373 18.6275 0 12 0C5.3725 0 0 5.3725 0 11.9995C0 18.6265 5.3725 23.999 12 23.999Z" fill="#25B7D3"/>
<path d="M8.94531 10.254V11.999H9.38181V14.6175C9.39132 15.3057 9.67136 15.9624 10.1613 16.4457C10.6513 16.9289 11.3119 17.1998 12.0001 17.1998C12.6883 17.1998 13.3488 16.9289 13.8388 16.4457C14.3288 15.9624 14.6088 15.3057 14.6183 14.6175V11.9995H15.0543V10.254H8.94531Z" fill="#CFD3D4"/>
<path d="M14.6178 10.2541H9.38184V7.63606C9.39523 6.95058 9.67695 6.2977 10.1665 5.81766C10.656 5.33763 11.3142 5.06873 11.9998 5.06873C12.6854 5.06873 13.3437 5.33763 13.8332 5.81766C14.3227 6.2977 14.6044 6.95058 14.6178 7.63606V10.2541Z" fill="#3E3E3F"/>
<path d="M11.9998 5.01794C11.3055 5.01808 10.6397 5.29394 10.1488 5.78488C9.65784 6.27583 9.38197 6.94165 9.38184 7.63594V10.2539H11.9998V5.01794Z" fill="#5B5C5F"/>
<path d="M9.38184 11.9995H14.6178V14.6175C14.6044 15.303 14.3227 15.9559 13.8332 16.4359C13.3437 16.9159 12.6854 17.1848 11.9998 17.1848C11.3142 17.1848 10.656 16.9159 10.1665 16.4359C9.67695 15.9559 9.39523 15.303 9.38184 14.6175V11.9995Z" fill="#F0F1F1"/>
<path d="M15.273 11.5635V14.6175C15.273 16.3045 13.687 17.6725 12 17.6725C10.313 17.6725 8.72752 16.3045 8.72752 14.6175V11.5635H8.29102V14.6175C8.29102 16.5455 10.072 18.1085 12 18.1085C13.928 18.1085 15.709 16.5455 15.709 14.6175V11.5635H15.273Z" fill="white"/>
<path d="M15.0548 10.254H8.94482V11.999H15.0548V10.254Z" fill="#CFD3D4"/>
<path d="M16.1457 11.3449C16.1458 11.3736 16.1402 11.402 16.1292 11.4285C16.1183 11.455 16.1023 11.4791 16.082 11.4994C16.0618 11.5197 16.0377 11.5358 16.0112 11.5468C15.9847 11.5578 15.9564 11.5634 15.9277 11.5634H15.0547V10.6899H15.9277C15.9855 10.6899 16.041 10.7129 16.0818 10.7538C16.1227 10.7947 16.1457 10.8501 16.1457 10.9079V11.3449Z" fill="#B6BCBD"/>
<path d="M8.94549 11.5636H8.07249C8.01463 11.5634 7.95918 11.5403 7.91831 11.4994C7.87744 11.4584 7.85449 11.4029 7.85449 11.3451V10.9086C7.85449 10.8507 7.87746 10.7953 7.91834 10.7544C7.95923 10.7135 8.01468 10.6906 8.07249 10.6906H8.94549V11.5636Z" fill="#E2E4E5"/>
<path d="M15.4908 18.7625C15.4908 18.8205 15.4678 18.8761 15.4268 18.917C15.3858 18.958 15.3302 18.981 15.2723 18.981H8.72729C8.69858 18.9811 8.67013 18.9755 8.6436 18.9645C8.61706 18.9536 8.59294 18.9375 8.57264 18.9172C8.55234 18.8969 8.53625 18.8728 8.52529 18.8462C8.51433 18.8197 8.50872 18.7912 8.50879 18.7625V18.3265C8.50872 18.2979 8.51431 18.2695 8.52524 18.243C8.53617 18.2164 8.55221 18.1924 8.57246 18.1721C8.59271 18.1518 8.61677 18.1357 8.64325 18.1247C8.66973 18.1137 8.69812 18.108 8.72679 18.108H15.2723C15.301 18.108 15.3294 18.1136 15.356 18.1245C15.3825 18.1355 15.4066 18.1516 15.4269 18.1719C15.4472 18.1922 15.4633 18.2163 15.4743 18.2428C15.4852 18.2694 15.4909 18.2978 15.4908 18.3265V18.7625Z" fill="#F0F1F1"/>
<path d="M10.2549 9.65504C10.3274 9.65504 10.3969 9.62625 10.4482 9.575C10.4994 9.52376 10.5282 9.45426 10.5282 9.38179C10.5282 9.30932 10.4994 9.23981 10.4482 9.18857C10.3969 9.13732 10.3274 9.10854 10.2549 9.10854C10.1825 9.10854 10.1131 9.1373 10.0619 9.1885C10.0107 9.23969 9.98193 9.30913 9.98193 9.38154C9.98193 9.45394 10.0107 9.52338 10.0619 9.57458C10.1131 9.62577 10.1825 9.65504 10.2549 9.65504ZM11.9999 9.65504C12.0724 9.65504 12.1419 9.62625 12.1932 9.575C12.2444 9.52376 12.2732 9.45426 12.2732 9.38179C12.2732 9.30932 12.2444 9.23981 12.1932 9.18857C12.1419 9.13732 12.0724 9.10854 11.9999 9.10854C11.9275 9.10854 11.8581 9.1373 11.8069 9.1885C11.7557 9.23969 11.7269 9.30913 11.7269 9.38154C11.7269 9.45394 11.7557 9.52338 11.8069 9.57458C11.8581 9.62577 11.9275 9.65504 11.9999 9.65504ZM13.7454 9.65504C13.8179 9.65504 13.8874 9.62625 13.9387 9.575C13.9899 9.52376 14.0187 9.45426 14.0187 9.38179C14.0187 9.30932 13.9899 9.23981 13.9387 9.18857C13.8874 9.13732 13.8179 9.10854 13.7454 9.10854C13.673 9.10854 13.6036 9.1373 13.5524 9.1885C13.5012 9.23969 13.4724 9.30913 13.4724 9.38154C13.4724 9.45394 13.5012 9.52338 13.5524 9.57458C13.6036 9.62577 13.673 9.65504 13.7454 9.65504ZM11.1274 8.78204C11.1633 8.78204 11.1988 8.77497 11.232 8.76124C11.2652 8.7475 11.2953 8.72738 11.3207 8.702C11.346 8.67663 11.3662 8.64651 11.3799 8.61335C11.3936 8.5802 11.4007 8.54467 11.4007 8.50879C11.4007 8.4729 11.3936 8.43737 11.3799 8.40422C11.3662 8.37107 11.346 8.34094 11.3207 8.31557C11.2953 8.2902 11.2652 8.27007 11.232 8.25634C11.1988 8.2426 11.1633 8.23554 11.1274 8.23554C11.055 8.23554 10.9855 8.26432 10.9342 8.31557C10.883 8.36681 10.8542 8.43632 10.8542 8.50879C10.8542 8.58126 10.883 8.65076 10.9342 8.702C10.9855 8.75325 11.055 8.78204 11.1274 8.78204ZM12.8729 8.78204C12.9088 8.78204 12.9443 8.77497 12.9775 8.76124C13.0107 8.7475 13.0408 8.72738 13.0661 8.702C13.0915 8.67663 13.1117 8.64651 13.1254 8.61335C13.1391 8.5802 13.1462 8.54467 13.1462 8.50879C13.1462 8.4729 13.1391 8.43737 13.1254 8.40422C13.1117 8.37107 13.0915 8.34094 13.0661 8.31557C13.0408 8.2902 13.0107 8.27007 12.9775 8.25634C12.9443 8.2426 12.9088 8.23554 12.8729 8.23554C12.8005 8.23554 12.731 8.26432 12.6797 8.31557C12.6285 8.36681 12.5997 8.43632 12.5997 8.50879C12.5997 8.58126 12.6285 8.65076 12.6797 8.702C12.731 8.75325 12.8005 8.78204 12.8729 8.78204ZM10.2549 7.91004C10.3273 7.91004 10.3968 7.88127 10.448 7.83008C10.4992 7.77888 10.5279 7.70944 10.5279 7.63704C10.5279 7.56463 10.4992 7.49519 10.448 7.444C10.3968 7.3928 10.3273 7.36404 10.2549 7.36404C10.1825 7.36404 10.1131 7.3928 10.0619 7.444C10.0107 7.49519 9.98193 7.56463 9.98193 7.63704C9.98193 7.70944 10.0107 7.77888 10.0619 7.83008C10.1131 7.88127 10.1825 7.91004 10.2549 7.91004ZM11.9999 7.91004C12.0723 7.91004 12.1418 7.88127 12.193 7.83008C12.2442 7.77888 12.2729 7.70944 12.2729 7.63704C12.2729 7.56463 12.2442 7.49519 12.193 7.444C12.1418 7.3928 12.0723 7.36404 11.9999 7.36404C11.9275 7.36404 11.8581 7.3928 11.8069 7.444C11.7557 7.49519 11.7269 7.56463 11.7269 7.63704C11.7269 7.70944 11.7557 7.77888 11.8069 7.83008C11.8581 7.88127 11.9275 7.91004 11.9999 7.91004ZM13.7454 7.91004C13.8178 7.91004 13.8873 7.88127 13.9385 7.83008C13.9897 7.77888 14.0184 7.70944 14.0184 7.63704C14.0184 7.56463 13.9897 7.49519 13.9385 7.444C13.8873 7.3928 13.8178 7.36404 13.7454 7.36404C13.673 7.36404 13.6036 7.3928 13.5524 7.444C13.5012 7.49519 13.4724 7.56463 13.4724 7.63704C13.4724 7.70944 13.5012 7.77888 13.5524 7.83008C13.6036 7.88127 13.673 7.91004 13.7454 7.91004ZM11.1274 7.03654C11.1642 7.03811 11.201 7.03222 11.2354 7.01923C11.2699 7.00623 11.3014 6.98639 11.328 6.96091C11.3546 6.93543 11.3757 6.90483 11.3902 6.87095C11.4047 6.83707 11.4121 6.80062 11.4121 6.76379C11.4121 6.72695 11.4047 6.6905 11.3902 6.65662C11.3757 6.62274 11.3546 6.59214 11.328 6.56666C11.3014 6.54118 11.2699 6.52134 11.2354 6.50834C11.201 6.49535 11.1642 6.48946 11.1274 6.49104C11.0571 6.49405 10.9907 6.5241 10.942 6.57492C10.8933 6.62574 10.8661 6.6934 10.8661 6.76379C10.8661 6.83417 10.8933 6.90183 10.942 6.95265C10.9907 7.00347 11.0571 7.03352 11.1274 7.03654ZM12.8729 7.03654C12.9097 7.03811 12.9465 7.03222 12.9809 7.01923C13.0154 7.00623 13.0469 6.98639 13.0735 6.96091C13.1001 6.93543 13.1212 6.90483 13.1357 6.87095C13.1502 6.83707 13.1576 6.80062 13.1576 6.76379C13.1576 6.72695 13.1502 6.6905 13.1357 6.65662C13.1212 6.62274 13.1001 6.59214 13.0735 6.56666C13.0469 6.54118 13.0154 6.52134 12.9809 6.50834C12.9465 6.49535 12.9097 6.48946 12.8729 6.49104C12.8026 6.49405 12.7362 6.5241 12.6875 6.57492C12.6388 6.62574 12.6116 6.6934 12.6116 6.76379C12.6116 6.83417 12.6388 6.90183 12.6875 6.95265C12.7362 7.00347 12.8026 7.03352 12.8729 7.03654ZM11.9999 6.16404C12.0367 6.16561 12.0735 6.15972 12.1079 6.14673C12.1424 6.13373 12.1739 6.11389 12.2005 6.08841C12.2271 6.06293 12.2482 6.03233 12.2627 5.99845C12.2772 5.96457 12.2846 5.92812 12.2846 5.89129C12.2846 5.85445 12.2772 5.818 12.2627 5.78412C12.2482 5.75024 12.2271 5.71964 12.2005 5.69416C12.1739 5.66868 12.1424 5.64884 12.1079 5.63584C12.0735 5.62285 12.0367 5.61696 11.9999 5.61854C11.9296 5.62155 11.8632 5.6516 11.8145 5.70242C11.7658 5.75324 11.7386 5.8209 11.7386 5.89129C11.7386 5.96167 11.7658 6.02933 11.8145 6.08015C11.8632 6.13097 11.9296 6.16102 11.9999 6.16404Z" fill="#B6BCBD"/>
<path d="M11.9998 11.9995H9.38184V14.6175C9.38197 15.3118 9.65784 15.9776 10.1488 16.4686C10.6397 16.9595 11.3055 17.2354 11.9998 17.2355V11.9995Z" fill="white"/>
<path d="M11.9998 10.254H8.94531V11.999H12.0003L11.9998 10.254Z" fill="#F0F1F1"/>
<path d="M11.9998 18.108H8.72679C8.69812 18.108 8.66973 18.1137 8.64325 18.1247C8.61677 18.1357 8.59271 18.1518 8.57246 18.1721C8.55221 18.1924 8.53617 18.2164 8.52524 18.243C8.51431 18.2695 8.50872 18.2979 8.50879 18.3265V18.7625C8.50872 18.7912 8.51431 18.8196 8.52524 18.8461C8.53617 18.8726 8.55221 18.8967 8.57246 18.917C8.59271 18.9373 8.61677 18.9534 8.64325 18.9644C8.66973 18.9754 8.69812 18.981 8.72679 18.981H11.9998V18.108Z" fill="white"/>
<path d="M15.709 14.6175V11.5635H15.2725V14.6175C15.2725 16.3045 13.687 17.6725 12 17.6725V18.1085C13.928 18.1085 15.709 16.5455 15.709 14.6175Z" fill="#E2E4E5"/>
</g>
<defs>
<clipPath id="clip0_1690_1556">
<rect width="24" height="23.999" fill="white"/>
</clipPath>
</defs>
</svg>
