<svg width="24" height="24" viewBox="0 0 24 24" fill="none" xmlns="http://www.w3.org/2000/svg">
<path d="M21.6238 13.8539C21.8102 13.9908 21.9492 14.1825 22.0214 14.4022C22.0936 14.6219 22.0954 14.8587 22.0265 15.0794C21.5504 16.599 20.7418 17.9935 19.6595 19.1617C19.503 19.3291 19.2986 19.4441 19.0742 19.4907C18.8498 19.5373 18.6165 19.5133 18.4063 19.4219L16.94 18.7784C16.7798 18.7071 16.6052 18.6743 16.43 18.6824C16.2556 18.6933 16.0861 18.7447 15.935 18.8324C15.7839 18.9198 15.6557 19.0417 15.5609 19.1883C15.4661 19.3348 15.4074 19.5018 15.3898 19.6754L15.2135 21.2729C15.1881 21.5004 15.0931 21.7144 14.9414 21.8857C14.7897 22.057 14.5887 22.1772 14.366 22.2299C12.809 22.6012 11.186 22.6012 9.62902 22.2299C9.40769 22.1768 9.20803 22.057 9.05711 21.8866C8.90618 21.7162 8.81128 21.5036 8.78527 21.2774L8.60902 19.6829C8.57875 19.4112 8.44922 19.1601 8.24527 18.9779C8.08595 18.8374 7.89011 18.7449 7.68041 18.7111C7.4707 18.6772 7.2557 18.7034 7.06027 18.7867L5.59402 19.4309C5.38439 19.5221 5.15172 19.5463 4.92781 19.5003C4.70391 19.4542 4.49967 19.3402 4.34302 19.1737C3.25899 18.0043 2.44934 16.6079 1.97302 15.0862C1.90438 14.8657 1.90622 14.6293 1.97827 14.4099C2.05033 14.1905 2.18902 13.9991 2.37502 13.8622L3.66877 12.9059C3.81014 12.8023 3.9251 12.6668 4.00434 12.5104C4.08358 12.3541 4.12488 12.1812 4.12488 12.0059C4.12488 11.8307 4.08358 11.6578 4.00434 11.5015C3.9251 11.3451 3.81014 11.2096 3.66877 11.1059L2.37502 10.1512C2.19036 10.0148 2.05254 9.82447 1.98054 9.60647C1.90854 9.38847 1.90592 9.1535 1.97302 8.93395C2.44846 7.4131 3.25796 6.01781 4.34227 4.8502C4.44727 4.73695 4.57477 4.64695 4.71727 4.58695C4.85607 4.52816 5.00528 4.49786 5.15602 4.49786C5.30676 4.49786 5.45596 4.52816 5.59477 4.58695L7.05502 5.23045C7.21567 5.29945 7.39024 5.32988 7.56476 5.31929C7.73928 5.3087 7.9089 5.25739 8.06002 5.16947C8.21115 5.08155 8.33959 4.95946 8.43505 4.81298C8.53052 4.6665 8.59035 4.49971 8.60977 4.32595L8.78677 2.73445C8.81229 2.50456 8.909 2.28839 9.06336 2.11614C9.21773 1.9439 9.42205 1.82417 9.64777 1.7737C10.4229 1.60288 11.2136 1.51191 12.0073 1.5022C12.7963 1.5112 13.5823 1.60195 14.3525 1.7737C14.5784 1.82444 14.7828 1.94456 14.9371 2.11724C15.0913 2.28991 15.1877 2.50651 15.2128 2.7367L15.3898 4.3267C15.4085 4.50019 15.4679 4.66684 15.5629 4.81317C15.658 4.95949 15.7862 5.08139 15.9371 5.16901C16.0881 5.25662 16.2575 5.3075 16.4317 5.31752C16.6059 5.32754 16.78 5.29643 16.94 5.2267L18.3995 4.58395C18.6099 4.49204 18.8437 4.46764 19.0685 4.51411C19.2934 4.56059 19.4983 4.67565 19.655 4.84345C20.7393 6.00936 21.5484 7.40355 22.0228 8.92345C22.091 9.1438 22.0889 9.37994 22.0167 9.59903C21.9445 9.81813 21.8059 10.0093 21.62 10.1459L20.33 11.1007C20.1881 11.2034 20.0725 11.3383 19.9927 11.4942C19.9129 11.6502 19.8711 11.8229 19.8708 11.9981C19.8705 12.1733 19.9117 12.346 19.991 12.5023C20.0703 12.6585 20.1854 12.7938 20.327 12.8969L21.6238 13.8539ZM11.9998 14.9999C12.7954 14.9999 13.5585 14.6839 14.1211 14.1213C14.6837 13.5587 14.9998 12.7956 14.9998 11.9999C14.9998 11.2043 14.6837 10.4412 14.1211 9.87863C13.5585 9.31602 12.7954 8.99995 11.9998 8.99995C11.2041 8.99995 10.4411 9.31602 9.87845 9.87863C9.31584 10.4412 8.99977 11.2043 8.99977 11.9999C8.99977 12.7956 9.31584 13.5587 9.87845 14.1213C10.4411 14.6839 11.2041 14.9999 11.9998 14.9999Z" fill="#80C7F7"/>
</svg>
