<svg width="24" height="24" viewBox="0 0 24 24" fill="none" xmlns="http://www.w3.org/2000/svg">
<g clip-path="url(#clip0_1690_1621)">
<path d="M12 23.25C18.2132 23.25 23.25 18.2132 23.25 12C23.25 5.7868 18.2132 0.75 12 0.75C5.7868 0.75 0.75 5.7868 0.75 12C0.75 18.2132 5.7868 23.25 12 23.25Z" fill="#A5C8CA"/>
<path d="M18.375 14.85L15.975 17.25V15.7875H13.875C13.275 15.7875 12.1875 15.4125 11.7375 14.025L11.1375 12.375L10.5375 10.65C10.425 10.2375 10.2375 10.2 10.1625 10.1625H5.625V8.28748H10.2C10.8 8.28748 11.8875 8.66248 12.3375 10.05L12.9375 11.7L13.5375 13.425C13.65 13.8375 13.8375 13.875 13.9125 13.9125H15.975V12.45L18.375 14.85Z" fill="white"/>
<path d="M10.65 13.125L10.575 13.3875C10.4625 13.8 10.275 13.8375 10.2 13.875H5.625V15.75H10.2C10.5375 15.75 11.0625 15.6375 11.5125 15.225C11.325 14.925 11.1375 14.625 11.025 14.2125L10.65 13.125ZM13.425 10.875L13.5375 10.575C13.65 10.1625 13.8375 10.125 13.9125 10.0875H15.975V11.55L18.375 9.15L15.975 6.75V8.2125H13.875C13.5375 8.2125 12.975 8.3625 12.525 8.7375C12.75 9.0375 12.9 9.375 13.05 9.7875L13.425 10.875Z" fill="white"/>
</g>
<defs>
<clipPath id="clip0_1690_1621">
<rect width="24" height="24" fill="white"/>
</clipPath>
</defs>
</svg>
