<?xml version="1.0" encoding="iso-8859-1"?>
<!-- Uploaded to: SVG Repo, www.svgrepo.com, Generator: SVG Repo Mixer Tools -->
<svg height="800px" width="800px" version="1.1" id="Layer_1" xmlns="http://www.w3.org/2000/svg" xmlns:xlink="http://www.w3.org/1999/xlink" 
	 viewBox="0 0 512.064 512.064" xml:space="preserve">
<g>
	<path style="fill:#3B95D1;" d="M391.136,252.416h-79.648V171.28h79.648V252.416z M343.504,220.416h15.648V203.28h-15.648V220.416z"
		/>
	<path style="fill:#3B95D1;" d="M295.856,252.416h-79.664V171.28h79.664V252.416z M248.208,220.416h15.664V203.28h-15.664V220.416z"
		/>
	<path style="fill:#3B95D1;" d="M200.56,252.416h-79.632V171.28h79.648v81.136H200.56z M152.928,220.416h15.648V203.28h-15.648
		V220.416z"/>
	<path style="fill:#3B95D1;" d="M393.696,512.064l-103.552-81.2c-11.536,1.776-22.992,2.688-34.112,2.688
		c-121.76,0-220.832-97.248-220.832-216.768C35.2,97.248,134.272,0,256.032,0s220.832,97.248,220.832,216.784
		c0,66.576-30.208,127.792-83.168,169.232V512.064z M298.624,396.864l63.056,49.456v-76.432l6.592-4.8
		c48.672-35.328,76.576-89.392,76.576-148.304C444.848,114.896,360.144,32,256.016,32S67.2,114.88,67.2,216.768
		s84.704,184.768,188.832,184.768c11.504,0,23.44-1.136,35.488-3.376L298.624,396.864z"/>
</g>
</svg>